0
SECTION
2
HEADER
9
$ACADVER
1
AC1015
0
ENDSEC
0
SECTION
2
ENTITIES
0
LINE
8
DEGENERATE
10
100
20
100
30
0
11
100
21
100
31
0
0
LINE
8
DEGENERATE
10
200
20
200
30
0
11
200.00000001
21
200.00000001
31
0
0
CIRCLE
8
DEGENERATE
10
300
20
300
30
0
40
1e-7
0
LWPOLYLINE
8
DEGENERATE
90
3
70
0
10
0
20
0
42
1e-12
10
50
20
0
42
-1e-12
10
100
20
0
0
LWPOLYLINE
8
DEGENERATE
90
4
70
1
10
0
20
0
10
100
20
100
10
0
20
100
10
100
20
0
0
ENDSEC
0
EOF
