0
SECTION
2
HEADER
9
$ACADVER
1
AC1015
9
$INSUNITS
70
4
9
$EXTMIN
10
0
20
0
30
0
9
$EXTMAX
10
50000
20
30000
30
0
0
ENDSEC
0
SECTION
2
TABLES
0
TABLE
2
LTYPE
70
2
0
LTYPE
2
CONTINUOUS
70
0
3
Solid line
72
65
73
0
40
0
0
LTYPE
2
DASHED
70
0
3
Dashed __ __
72
65
73
2
40
10
49
7
49
-3
0
ENDTAB
0
TABLE
2
LAYER
70
4
0
LAYER
2
0
70
0
62
7
6
CONTINUOUS
0
LAYER
2
WALLS
70
0
62
1
6
CONTINUOUS
0
LAYER
2
COLUMNS
70
0
62
3
6
CONTINUOUS
0
LAYER
2
GRID
70
0
62
8
6
DASHED
0
LAYER
2
ANNOTATION
70
0
62
7
6
CONTINUOUS
0
ENDTAB
0
ENDSEC
0
SECTION
2
ENTITIES
0
LINE
8
GRID
10
0
20
0
30
0
11
40000
21
0
31
0
0
LINE
8
GRID
10
0
20
20000
30
0
11
40000
21
20000
31
0
0
LINE
8
GRID
10
0
20
0
30
0
11
0
21
20000
31
0
0
LINE
8
GRID
10
20000
20
0
30
0
11
20000
21
20000
31
0
0
LINE
8
GRID
10
40000
20
0
30
0
11
40000
21
20000
31
0
0
LWPOLYLINE
8
COLUMNS
90
4
70
1
10
-200
20
-200
10
200
20
-200
10
200
20
200
10
-200
20
200
0
LWPOLYLINE
8
COLUMNS
90
4
70
1
10
19800
20
-200
10
20200
20
-200
10
20200
20
200
10
19800
20
200
0
LWPOLYLINE
8
COLUMNS
90
4
70
1
10
39800
20
-200
10
40200
20
-200
10
40200
20
200
10
39800
20
200
0
LWPOLYLINE
8
WALLS
90
5
70
1
10
0
20
0
42
0
10
40000
20
0
42
0
10
40000
20
20000
42
0
10
20000
20
20000
42
0.41421356
10
0
20
20000
42
0
0
CIRCLE
8
COLUMNS
10
10000
20
10000
30
0
40
1500
0
ARC
8
WALLS
10
5000
20
0
30
0
40
1000
50
0
51
90
0
TEXT
8
ANNOTATION
10
10000
20
12000
30
0
40
350
1
STRUCTURAL BAY A-1
0
TEXT
8
ANNOTATION
10
30000
20
12000
30
0
40
350
1
FABRICATION HALL B
0
TEXT
8
ANNOTATION
10
0
20
-1000
30
0
40
400
1
GRID 1
0
TEXT
8
ANNOTATION
10
20000
20
-1000
30
0
40
400
1
GRID 2
0
TEXT
8
ANNOTATION
10
40000
20
-1000
30
0
40
400
1
GRID 3
0
ENDSEC
0
EOF
